<?xml version="1.0" standalone="no"?>
<!DOCTYPE svg PUBLIC "-//W3C//DTD SVG 20010904//EN"
 "http://www.w3.org/TR/2001/REC-SVG-20010904/DTD/svg10.dtd">
<svg version="1.0" xmlns="http://www.w3.org/2000/svg"
 width="943.000000pt" height="939.000000pt" viewBox="0 0 943.000000 939.000000"
 preserveAspectRatio="xMidYMid meet">

<g transform="translate(0.000000,939.000000) scale(0.100000,-0.100000)"
fill="#000000" stroke="none">
<path d="M4448 9245 c-147 -17 -337 -50 -420 -74 -21 -6 -53 -15 -70 -20 -51
-13 -235 -77 -293 -101 -183 -75 -348 -164 -525 -283 -41 -28 -87 -60 -101
-71 -14 -12 -43 -34 -65 -51 -102 -79 -222 -192 -399 -379 -86 -90 -273 -346
-345 -471 -10 -16 -34 -59 -55 -95 -85 -148 -157 -298 -215 -445 -4 -11 -13
-33 -19 -48 -6 -15 -11 -35 -11 -43 0 -33 -43 -73 -122 -114 -46 -23 -95 -51
-110 -61 -14 -11 -31 -19 -37 -19 -6 0 -11 -3 -11 -8 0 -4 -12 -13 -27 -20
-62 -27 -310 -223 -447 -352 -201 -188 -387 -413 -515 -620 -91 -148 -213
-377 -256 -480 -15 -36 -34 -81 -42 -100 -8 -19 -19 -44 -24 -55 -22 -53 -91
-271 -114 -365 -14 -58 -30 -121 -35 -141 -6 -20 -10 -50 -10 -67 0 -17 -4
-41 -9 -54 -19 -51 -26 -213 -26 -593 0 -382 4 -459 35 -645 26 -163 100 -449
140 -545 4 -11 13 -36 20 -55 7 -19 21 -54 31 -77 11 -24 19 -47 19 -52 0 -19
150 -333 209 -436 15 -27 37 -66 49 -86 11 -20 46 -76 79 -124 32 -49 63 -96
68 -104 12 -19 68 -94 75 -101 3 -3 28 -32 55 -65 180 -218 376 -419 550 -564
166 -139 370 -291 389 -291 3 0 63 -37 133 -83 70 -45 142 -89 158 -97 17 -8
41 -22 55 -31 45 -29 390 -199 405 -199 3 0 27 -9 53 -21 26 -12 56 -25 67
-29 11 -4 41 -17 67 -29 26 -12 52 -21 58 -21 6 0 18 -5 28 -10 19 -11 347
-119 427 -140 17 -5 64 -17 105 -28 76 -21 320 -71 440 -91 167 -27 201 -31
258 -31 33 0 63 -4 66 -9 3 -5 52 -10 108 -11 57 -1 126 -4 153 -6 83 -8 389
-8 580 0 181 8 382 30 595 65 110 18 410 90 480 115 25 9 53 16 63 16 9 0 25
4 35 9 9 5 64 24 122 41 105 32 268 90 325 114 17 8 86 37 155 67 112 47 428
202 505 247 101 59 143 86 261 167 172 118 265 190 388 299 154 137 375 368
449 468 15 20 32 42 40 50 7 7 52 74 101 148 156 236 271 505 314 730 28 146
32 183 32 276 -1 360 -127 674 -364 910 -126 126 -223 192 -381 259 -67 28
-77 32 -165 58 -80 24 -132 34 -275 56 -83 13 -416 14 -479 2 -28 -5 -82 -15
-121 -21 -167 -28 -431 -104 -620 -180 -128 -50 -152 -61 -290 -131 -125 -64
-160 -84 -330 -194 -43 -27 -86 -54 -96 -60 -11 -5 -19 -13 -19 -17 0 -5 -5
-8 -12 -8 -6 0 -21 -8 -32 -19 -12 -10 -52 -40 -90 -66 -38 -26 -77 -55 -87
-64 -22 -20 -79 -54 -79 -47 0 3 19 29 43 58 150 187 350 475 435 627 14 25
36 64 48 86 27 45 164 323 164 330 0 3 9 27 21 53 12 26 25 56 29 67 36 90 51
137 84 255 21 74 42 144 46 155 5 11 11 34 15 50 3 17 10 48 16 70 32 128 75
407 84 545 7 120 14 167 24 153 7 -11 132 -72 211 -103 85 -34 98 -39 123 -49
12 -5 49 -19 82 -31 33 -12 69 -26 80 -31 29 -13 228 -62 325 -79 181 -34 658
-47 815 -22 301 46 595 152 805 289 70 46 270 235 270 255 0 5 9 18 19 29 58
63 132 256 147 387 12 107 -33 306 -88 384 -10 14 -18 31 -18 37 0 6 -4 11
-10 11 -5 0 -10 6 -10 13 0 22 -129 155 -194 200 -87 61 -188 107 -281 129
-22 5 -60 14 -85 20 -26 6 -251 13 -535 18 -329 4 -503 11 -530 19 -22 6 -58
17 -80 23 -119 36 -385 216 -400 272 -36 127 -157 379 -252 526 -265 408 -740
775 -1205 930 -51 17 -101 35 -110 40 -10 6 -27 10 -37 10 -11 0 -23 5 -26 10
-3 6 -19 10 -36 10 -16 0 -37 4 -47 9 -26 14 -202 46 -307 56 -33 3 -78 8
-100 10 -100 13 -427 13 -537 0z m452 -315 c262 -27 343 -42 550 -105 124 -37
227 -77 304 -117 11 -6 51 -26 90 -46 233 -116 480 -329 683 -588 32 -42 123
-190 123 -202 0 -4 9 -18 20 -32 11 -14 20 -28 20 -32 0 -6 -29 -16 -115 -40
-107 -29 -304 -134 -408 -217 -75 -60 -182 -166 -243 -241 -16 -19 -34 -40
-40 -47 -6 -6 -71 -100 -145 -209 -159 -235 -273 -361 -409 -451 l-90 -60 243
-145 c133 -80 260 -153 282 -163 78 -34 122 -54 269 -125 l148 -71 -18 -22
c-182 -213 -492 -397 -819 -485 -166 -45 -317 -61 -578 -62 l-167 0 -38 -34
c-34 -32 -37 -39 -37 -89 0 -62 21 -100 71 -129 26 -15 66 -17 330 -19 210 -1
318 2 355 11 332 76 504 139 709 259 47 28 86 46 88 42 4 -11 -15 -145 -28
-198 -5 -24 -14 -60 -19 -80 -47 -199 -119 -423 -178 -553 -63 -138 -136 -286
-173 -350 -23 -41 -51 -91 -62 -110 -29 -50 -154 -232 -224 -324 -32 -43 -68
-90 -79 -105 -26 -35 -164 -200 -190 -227 -11 -12 -40 -43 -64 -70 -74 -83
-374 -384 -378 -380 -5 4 22 102 37 141 5 11 11 34 15 50 3 17 10 48 16 70 46
180 46 577 0 760 -21 86 -30 113 -59 187 -72 184 -182 347 -328 488 -232 222
-480 333 -855 379 -108 14 -346 14 -354 1 -3 -5 -27 -10 -52 -10 -25 0 -62 -4
-82 -10 -20 -5 -67 -17 -106 -26 -63 -14 -143 -40 -200 -64 -143 -59 -245
-112 -351 -184 -166 -112 -306 -245 -454 -432 -33 -42 -109 -152 -131 -189
-57 -100 -81 -147 -76 -151 2 -2 150 77 328 178 291 163 366 210 449 279 54
45 206 141 275 174 92 43 229 88 335 110 117 24 395 24 504 1 157 -33 317
-102 436 -185 80 -57 195 -170 240 -236 18 -27 36 -52 39 -55 21 -18 75 -133
99 -210 52 -165 66 -275 59 -461 -6 -146 -8 -170 -28 -269 -34 -164 -79 -289
-167 -460 -114 -221 -276 -441 -467 -633 -100 -100 -120 -115 -172 -129 -37
-9 -66 -16 -155 -39 -324 -80 -626 -105 -918 -75 -91 10 -185 22 -210 27 -25
5 -67 14 -95 20 -82 18 -253 73 -374 121 -113 44 -304 143 -387 198 -40 28
-77 50 -83 50 -5 0 -11 3 -13 8 -2 4 -31 28 -66 53 -290 214 -546 524 -709
859 -61 125 -72 156 -111 320 -38 156 -42 185 -50 340 -10 190 8 562 29 585 5
5 9 20 9 35 1 49 81 342 119 435 5 11 13 31 19 45 48 119 70 169 115 260 62
125 142 271 178 322 11 14 19 31 19 36 0 6 3 12 8 14 4 2 30 35 57 73 27 39
52 72 55 75 3 3 17 21 30 40 13 19 27 37 30 40 3 3 16 18 28 34 80 104 241
272 361 376 35 30 111 101 170 156 174 167 288 254 425 325 57 30 63 36 90 98
62 137 160 336 168 339 4 2 8 7 8 12 0 6 60 114 103 185 41 68 149 224 162
235 8 7 15 18 15 25 0 8 3 15 8 17 4 2 46 50 93 108 131 160 277 301 483 467
25 20 205 137 248 161 181 101 375 183 548 232 25 7 56 16 70 20 14 4 52 13
85 20 33 6 78 16 100 21 57 12 182 29 240 32 169 8 263 7 365 -3z m1870 -1457
c14 -9 60 -45 102 -80 43 -35 80 -63 83 -63 3 0 16 -9 28 -21 37 -35 208 -143
282 -178 96 -46 99 -47 195 -75 84 -25 93 -26 600 -35 534 -10 545 -11 660
-57 55 -21 122 -66 162 -108 36 -36 88 -111 88 -124 0 -5 7 -23 16 -41 13 -25
15 -54 12 -129 -3 -89 -7 -104 -43 -177 -30 -61 -59 -100 -121 -162 -91 -92
-165 -143 -304 -210 -138 -66 -158 -73 -295 -107 -208 -51 -211 -51 -460 -50
-237 1 -257 3 -455 43 -89 19 -272 73 -335 100 -11 5 -36 16 -55 24 -19 9 -57
25 -85 36 -27 11 -156 73 -285 138 -239 120 -270 135 -382 179 -35 14 -72 29
-83 33 -38 17 -131 50 -227 82 -61 20 -98 38 -98 47 0 14 4 19 106 157 32 44
80 112 106 152 140 215 281 376 395 454 26 18 50 36 53 39 19 25 226 133 275
143 35 8 40 7 65 -10z m855 -3547 c161 -23 235 -41 350 -86 167 -65 331 -188
419 -314 109 -157 176 -367 176 -553 0 -135 -44 -353 -100 -493 -28 -71 -115
-244 -149 -295 -14 -22 -30 -48 -36 -57 -22 -36 -100 -145 -124 -174 -14 -17
-35 -42 -46 -57 -87 -111 -326 -347 -460 -454 -33 -26 -62 -50 -65 -53 -10
-11 -186 -138 -210 -151 -14 -8 -27 -17 -30 -20 -3 -4 -45 -31 -95 -60 -49
-29 -103 -61 -120 -71 -90 -54 -453 -225 -600 -283 -237 -94 -313 -120 -480
-166 -22 -6 -51 -15 -65 -19 -37 -11 -99 -27 -152 -39 -27 -6 -67 -16 -90 -21
-59 -14 -314 -56 -423 -69 -49 -6 -130 -16 -180 -23 -97 -13 -719 -16 -815 -4
-30 4 -93 11 -140 16 -155 16 -455 62 -520 80 -19 5 -57 14 -85 20 -73 16
-195 48 -235 60 -14 4 -59 18 -100 30 -122 37 -181 56 -255 85 -87 33 -99 38
-155 62 -25 11 -88 37 -140 59 -52 21 -129 56 -170 77 -155 81 -246 130 -272
148 -14 11 -29 19 -32 19 -3 0 -32 16 -63 36 -345 217 -588 420 -866 721 -121
132 -281 342 -351 463 -50 86 -145 280 -137 280 4 0 20 -14 37 -31 66 -70 217
-192 351 -283 78 -53 144 -96 147 -96 3 0 25 -13 49 -30 63 -42 236 -129 347
-174 52 -21 104 -42 115 -47 18 -7 158 -53 240 -79 51 -15 177 -39 322 -60
109 -16 190 -20 388 -20 448 0 772 60 1142 211 113 47 343 158 428 207 101 59
230 139 369 232 88 58 167 110 175 115 9 6 18 13 21 16 3 3 28 20 55 39 48 32
138 100 270 205 35 28 96 76 136 107 41 32 162 126 269 211 107 84 211 164
230 177 19 13 37 27 40 31 3 3 68 49 145 101 148 101 368 219 525 282 52 21
104 42 115 46 11 5 38 14 60 21 22 7 45 16 50 19 10 7 36 15 160 49 103 29
362 66 485 69 25 1 90 -5 145 -12z"/>
<path d="M5085 7831 c-155 -52 -254 -187 -255 -344 0 -109 84 -246 185 -298
89 -47 175 -60 244 -38 108 35 217 118 247 188 9 20 20 44 25 53 12 23 12 183
0 206 -5 9 -17 35 -27 57 -23 48 -98 126 -144 150 -45 23 -134 44 -185 44 -22
0 -63 -8 -90 -18z m109 -132 c28 -13 56 -64 56 -104 0 -16 -11 -38 -29 -56
-85 -85 -220 27 -154 127 27 42 79 55 127 33z"/>
</g>
</svg>
